# xmcd
#
# Track frame offsets:
#	150
#	18522
#	40150
#	62960
#	83170
#	100910
#	121387
#	138867
#	156392
#	171520
#	190022
#	208800
#	226357
#	240652
#	270600
#	287600
#	313115
#
# Disc length: 4331 seconds
#
# Revision: 0
# Processed by: cddbd v1.4PL0 Copyright (c) Steve Scherf et al.
# Submitted via: EasyCDDAExtractor 4.5.0.2
#
DISCID=f410e911
DTITLE=Zydeco Flames - Smokin' At The Plant
DYEAR=1900
DGENRE=
TTITLE0=Not Fade Away
TTITLE1=Going To Louisiana (Sweet Home Chicago)
TTITLE2=You're The Only One
TTITLE3=Love Song
TTITLE4=Choo Choo Ch'Boogie
TTITLE5=Hot Tamale Baby
TTITLE6=Jolene
TTITLE7=I'll Take You There
TTITLE8=Baby Please Don't Go (Duo)
TTITLE9=Pressure Drop
TTITLE10=Ses Parents Ne Veulent Plus Le Voir
TTITLE11=Jambalaya
TTITLE12=You Can Dance (All Night)
TTITLE13=Hog For You
TTITLE14=You Used To Call Me
TTITLE15=Give Him Cornbread
TTITLE16=Ay, Ai, Ai (Duo)
EXTD=
EXTT0=
EXTT1=
EXTT2=
EXTT3=
EXTT4=
EXTT5=
EXTT6=
EXTT7=
EXTT8=
EXTT9=
EXTT10=
EXTT11=
EXTT12=
EXTT13=
EXTT14=
EXTT15=
EXTT16=
PLAYORDER=
